<svg width="27" height="22" viewBox="0 0 27 22" fill="none" xmlns="http://www.w3.org/2000/svg">
<path d="M26.2168 8.84565H25.1505V8.8H13.2371V13.2H20.7181C19.6267 15.7614 16.694 17.6 13.2371 17.6C8.851 17.6 5.29485 14.6448 5.29485 11C5.29485 7.35515 8.851 4.4 13.2371 4.4C15.2617 4.4 17.1037 5.0347 18.5062 6.07145L22.2503 2.9601C19.8861 1.12915 16.7238 0 13.2371 0C5.92692 0 0 4.92525 0 11C0 17.0748 5.92692 22 13.2371 22C20.5473 22 26.4742 17.0748 26.4742 11C26.4742 10.2625 26.3829 9.5425 26.2168 8.84565Z" fill="#D9D9D9"/>
</svg>
